<?xml version="1.0" encoding="UTF-8"?>
<svg id="Layer_1" data-name="Layer 1" xmlns="http://www.w3.org/2000/svg" xmlns:xlink="http://www.w3.org/1999/xlink" viewBox="0 0 800 800">
  <defs>
    <style>
      .cls-1 {
        letter-spacing: .01em;
      }

      .cls-2 {
        fill: #e9b73e;
      }

      .cls-3 {
        fill: none;
      }

      .cls-4 {
        letter-spacing: .02em;
      }

      .cls-5 {
        letter-spacing: -.05em;
      }

      .cls-6 {
        letter-spacing: 0em;
      }

      .cls-7 {
        fill: #414042;
        font-family: BodoniFragileDirt, 'Bodoni Fragile';
        font-size: 20.24px;
      }

      .cls-8 {
        clip-path: url(#clippath);
      }
    </style>
    <clipPath id="clippath">
      <path class="cls-3" d="M462.55,465.2c2,4.22,5.04,10.29,9.16,17.35,7.01,12.01,12.44,21.33,22.14,30.98,11.7,11.63,23.17,17.32,25.5,18.46,12.35,5.99,22.88,7.58,30.55,8.67,8.06,1.15,19.74,1.98,33.76.07,1.05-21.67,1.62-44.36,1.57-67.99-.05-21.45-.61-42.11-1.57-61.92h-120.52c.2,2.74-.79,51.65-.59,54.39Z"/>
    </clipPath>
  </defs>
  <g>
    <rect class="cls-2" x="225.93" y="187.35" width="4.84" height="157.03" rx="2.42" ry="2.42"/>
    <rect class="cls-2" x="237.9" y="187.35" width="4.84" height="157.03" rx="2.42" ry="2.42"/>
    <rect class="cls-2" x="249.88" y="187.35" width="4.84" height="157.03" rx="2.42" ry="2.42"/>
    <rect class="cls-2" x="261.85" y="187.35" width="4.84" height="157.03" rx="2.42" ry="2.42"/>
    <rect class="cls-2" x="273.82" y="187.35" width="4.84" height="157.03" rx="2.42" ry="2.42"/>
    <rect class="cls-2" x="285.8" y="187.35" width="4.84" height="157.03" rx="2.42" ry="2.42"/>
    <rect class="cls-2" x="300.72" y="187.35" width="8.39" height="157.03" rx="2.42" ry="2.42"/>
    <path class="cls-2" d="M306.69,344.51h-3.55c-1.4,0-2.54-1.14-2.54-2.54v-152.2c0-1.4,1.14-2.54,2.54-2.54h3.55c1.4,0,2.54,1.14,2.54,2.54v152.2c0,1.4-1.14,2.54-2.54,2.54ZM303.13,187.48c-1.26,0-2.29,1.03-2.29,2.29v152.2c0,1.26,1.03,2.29,2.29,2.29h3.55c1.26,0,2.29-1.03,2.29-2.29v-152.2c0-1.26-1.03-2.29-2.29-2.29h-3.55Z"/>
    <rect class="cls-2" x="209.22" y="187.35" width="8.39" height="157.03" rx="2.42" ry="2.42"/>
    <path class="cls-2" d="M215.19,344.51h-3.55c-1.4,0-2.54-1.14-2.54-2.54v-152.2c0-1.4,1.14-2.54,2.54-2.54h3.55c1.4,0,2.54,1.14,2.54,2.54v152.2c0,1.4-1.14,2.54-2.54,2.54ZM211.64,187.48c-1.26,0-2.29,1.03-2.29,2.29v152.2c0,1.26,1.03,2.29,2.29,2.29h3.55c1.26,0,2.29-1.03,2.29-2.29v-152.2c0-1.26-1.03-2.29-2.29-2.29h-3.55Z"/>
    <rect class="cls-2" x="482.82" y="281.29" width="5.02" height="63.1" rx="2.42" ry="2.42"/>
    <rect class="cls-2" x="495.49" y="281.29" width="5.34" height="63.1" rx="2.42" ry="2.42"/>
    <rect class="cls-2" x="508.54" y="281.29" width="4.89" height="63.1" rx="2.42" ry="2.42"/>
    <rect class="cls-2" x="521.02" y="281.29" width="5.59" height="63.1" rx="2.42" ry="2.42"/>
    <rect class="cls-2" x="533.78" y="281.29" width="5.72" height="63.1" rx="2.42" ry="2.42"/>
    <rect class="cls-2" x="546.54" y="281.29" width="5.85" height="63.1" rx="2.42" ry="2.42"/>
    <rect class="cls-2" x="559.54" y="281.29" width="8.39" height="63.1" rx="2.42" ry="2.42"/>
    <rect class="cls-2" x="468.04" y="281.29" width="8.39" height="63.1" rx="2.42" ry="2.42"/>
    <path class="cls-2" d="M474.02,344.51h-3.55c-1.4,0-2.54-1.14-2.54-2.54v-58.26c0-1.4,1.14-2.54,2.54-2.54h3.55c1.4,0,2.54,1.14,2.54,2.54v58.26c0,1.4-1.14,2.54-2.54,2.54ZM470.46,281.41c-1.26,0-2.29,1.03-2.29,2.29v58.26c0,1.26,1.03,2.29,2.29,2.29h3.55c1.26,0,2.29-1.03,2.29-2.29v-58.26c0-1.26-1.03-2.29-2.29-2.29h-3.55Z"/>
    <path class="cls-2" d="M209.47,188.35l7.93-6.75h96.66c25.71-2.27,46.72-1.34,61.43,0,16.14,1.47,24.43,2.3,35.02,6.55,6.73,2.7,28.45,11.8,41.67,34.83,8.42,14.67,9.91,28.92,10.57,35.8.78,8.22.37,15.17-.2,20.15,26.84-.07,53.67-.13,80.51-.2l20.25.2,4.6,1.86c.23,1.53.46,3.07.68,4.6-36.13.39-72.26.78-108.39,1.17-.43,2.34-1.18,5.7-2.54,9.59-8.06,22.98-27.16,34.71-32.28,37.76-11.82,7.04-23.33,9.61-31.5,10.57-30.71.02-61.41.04-92.12.07,1.14-.71,2.28-1.41,3.42-2.12,2.52.01,6.65.04,11.74.1,33.79.36,42.95,1.16,59.74-.07,10.07-.73,15.11-1.1,19.96-2.35,19.37-4.98,31.89-16.58,36.78-21.65,13.03-13.49,17.63-27.82,18.65-31.17,6.29-20.73,1.74-38.43-.78-46.04-6.51-19.63-19.06-30.92-22.57-33.91-21.33-18.21-46.14-18.21-52.7-18-20.07-.33-40.13-.65-60.2-.98h-106.35Z"/>
    <path class="cls-2" d="M325.47,343.12c2.13-9.74,5.79-16.89,8.54-21.39,1.27-2.08,15.78-24.99,44.09-31.7,4.74-1.12,8.08-1.37,17.09-1.83,14.33-.72,34.49-1.52,59.48-1.83.65-2.7,1.3-5.39,1.96-8.09-17.14-.5-35.36-.33-54.52.78-7.62.44-15.05,1.01-22.3,1.7-7.03,1.38-30.07,6.82-47.09,28.04-10.49,13.08-14.2,26.55-15.65,34.04"/>
    <path class="cls-2" d="M266.69,490.59v-70.51c0-1.88-1.15-3.4-2.56-3.4s-2.57,1.52-2.57,3.4v71.09c1.91-.13,3.59-.31,5.13-.58Z"/>
    <path class="cls-2" d="M291.57,476.94v-56.86c0-1.88-1.44-3.4-3.21-3.4s-3.21,1.52-3.21,3.4v62.88c2.48-1.94,4.61-4.02,6.42-6.02Z"/>
    <path class="cls-2" d="M278.39,486.54v-66.72c0-1.88-1.28-3.4-2.86-3.4s-2.86,1.52-2.86,3.4v69.38c2.01-.65,3.85-1.52,5.72-2.66Z"/>
    <path class="cls-2" d="M306.13,457.51v-37.43c0-1.88-1.51-3.4-3.39-3.4h-.99c-1.87,0-3.39,1.52-3.39,3.4v49.65c3.32-4.26,5.85-8.45,7.77-12.22Z"/>
    <path class="cls-2" d="M242.83,491.16v-71.34c0-1.88-1.09-3.4-2.44-3.4s-2.44,1.52-2.44,3.4v71.28c1.68.03,3.31.04,4.88.05Z"/>
    <path class="cls-2" d="M230.77,491.35v-71.2c0-1.88-1.02-3.4-2.26-3.4s-2.26,1.52-2.26,3.4v71.06c1.55.06,3.06.11,4.53.14Z"/>
    <path class="cls-2" d="M217.82,490.95v-70.88c0-1.88-1.52-3.4-3.39-3.4h-1.57c-1.87,0-3.39,1.52-3.39,3.4v70.57c2.85.12,5.64.22,8.35.31Z"/>
    <path class="cls-2" d="M255.22,491.11v-71.26c0-1.88-1.22-3.4-2.72-3.4s-2.72,1.52-2.72,3.4v71.34c1.98-.01,3.78-.03,5.45-.08Z"/>
    <path class="cls-2" d="M255.22,491.22v16.78c0,1.34,1.08,2.42,2.42,2.42h1.98c1.34,0,2.42-1.08,2.42-2.42v-17.04c-1.99.11-4.25.2-6.82.26Z"/>
    <path class="cls-2" d="M242.83,491.22v16.64c0,1.34,1.08,2.42,2.42,2.42h1.98c1.34,0,2.42-1.08,2.42-2.42v-16.68c-2.1.02-4.37.03-6.82.04Z"/>
    <path class="cls-2" d="M217.82,491.08v16.96c0,1.34.91,2.42,2.03,2.42h1.66c1.12,0,2.03-1.08,2.03-2.42v-16.81c-1.85-.04-3.76-.09-5.73-.15Z"/>
    <path class="cls-2" d="M230.77,491.33v16.72c0,1.34,1.08,2.42,2.42,2.42h1.98c1.34,0,2.42-1.08,2.42-2.42v-16.66c-2.18-.01-4.45-.03-6.82-.06Z"/>
    <path class="cls-2" d="M291.57,477.36v30.68c0,1.34,1.08,2.42,2.42,2.42h1.98c1.34,0,2.42-1.08,2.42-2.42v-38.08c0-.16-.02-.32-.05-.47-1.81,2.48-4.05,5.19-6.77,7.86Z"/>
    <path class="cls-2" d="M278.39,486.35v21.3c0,1.34,1.08,2.42,2.42,2.42h1.98c1.34,0,2.42-1.08,2.42-2.42v-25.55c-2.08,1.53-4.35,2.97-6.82,4.24Z"/>
    <path class="cls-2" d="M266.11,490.19v17.53c0,1.34,1.08,2.42,2.42,2.42h1.98c1.34,0,2.42-1.08,2.42-2.42v-18.8c-1.8.52-3.93.95-6.82,1.27Z"/>
    <g class="cls-8">
      <rect class="cls-2" x="484.28" y="416.88" width="5.02" height="120.65" rx="2.42" ry="2.42"/>
      <rect class="cls-2" x="496.94" y="416.88" width="5.34" height="120.65" rx="2.42" ry="2.42"/>
      <rect class="cls-2" x="509.99" y="416.88" width="4.89" height="120.65" rx="2.42" ry="2.42"/>
      <rect class="cls-2" x="522.47" y="416.88" width="5.59" height="120.65" rx="2.42" ry="2.42"/>
      <rect class="cls-2" x="535.23" y="416.88" width="5.72" height="120.65" rx="2.42" ry="2.42"/>
      <rect class="cls-2" x="548" y="416.88" width="5.85" height="120.65" rx="2.42" ry="2.42"/>
      <rect class="cls-2" x="559" y="416.88" width="8.39" height="126.95" rx="2.42" ry="2.42"/>
      <rect class="cls-2" x="467.51" y="416.88" width="8.39" height="126.95" rx="2.42" ry="2.42"/>
    </g>
    <path class="cls-2" d="M493.86,513.53c-1.75-1.74-3.37-3.48-4.88-5.22v23.34c0,1.34,1.08,2.42,2.42,2.42h1.98c1.34,0,2.42-1.08,2.42-2.42v-16.25c-.65-.61-1.29-1.23-1.94-1.87Z"/>
    <path class="cls-2" d="M476.92,491.34c-.04.17-.06.35-.06.54v39.77c0,1.34,1.08,2.42,2.42,2.42h1.98c1.34,0,2.42-1.08,2.42-2.42v-30.05c-2.38-3.28-4.57-6.66-6.75-10.26Z"/>
    <path class="cls-2" d="M501.64,520.5v11.16c0,1.34,1.08,2.42,2.42,2.42h1.98c1.34,0,2.42-1.08,2.42-2.42v-6.08c-2.11-1.44-4.41-3.13-6.82-5.08Z"/>
    <path class="cls-2" d="M519.36,531.99c-.73-.35-2.36-1.16-4.61-2.45v2.12c0,1.34,1.08,2.42,2.42,2.42h1.98c.89,0,1.67-.49,2.09-1.21-.62-.28-1.24-.57-1.87-.87Z"/>
    <path class="cls-2" d="M567.36,533.34c-14.08.4-28.16.79-42.24,1.19,7.11,2.61,13.44,4.17,18.5,5.15,7.98,1.54,14.1,1.94,16,1.96,2.59.02,5.18.04,7.77.07"/>
    <path class="cls-2" d="M334.4,416.88h10.57c5.4,4.94,14.61,12.13,27.78,17.22,11.75,4.53,22.19,5.66,29.15,5.87l67.89-.2v7.25c-22.63-.07-45.26-.14-67.89-.21-7.82.25-23.24-.32-40.08-8.56-13.73-6.72-22.6-15.69-27.42-21.37Z"/>
    <path class="cls-2" d="M168.09,381.07v22.56h-3.25v-46.04h12.08c3.09,0,5.69,1.06,7.8,3.17,2.07,2.11,3.14,4.97,3.2,8.58-.06,3.57-1.13,6.41-3.2,8.52-2.13,2.15-4.73,3.22-7.8,3.22h-8.83ZM168.09,358.74v21.18h8.11c2.34,0,4.3-.88,5.86-2.65,1.53-1.73,2.34-4.37,2.43-7.94-.09-3.53-.9-6.2-2.43-8-1.56-1.73-3.52-2.59-5.86-2.59h-8.11Z"/>
    <path class="cls-2" d="M200.07,397.42c-4.73-4.6-7.1-10.21-7.1-16.81s2.37-12.2,7.1-16.81c4.73-4.6,10.51-6.91,17.34-6.91s12.61,2.3,17.34,6.91c4.73,4.6,7.1,10.21,7.1,16.81s-2.37,12.2-7.1,16.81c-4.73,4.6-10.51,6.91-17.34,6.91s-12.61-2.3-17.34-6.91ZM197.63,380.61c0,6.6,1.86,12.01,5.59,16.23,3.72,4.22,8.46,6.33,14.2,6.33s10.47-2.11,14.2-6.33c3.72-4.22,5.59-9.63,5.59-16.23s-1.86-12.01-5.59-16.23c-3.72-4.22-8.46-6.33-14.2-6.33s-10.47,2.11-14.2,6.33c-3.72,4.22-5.59,9.63-5.59,16.23Z"/>
    <path class="cls-2" d="M252.98,403.63h-4.19v-46.04h4.19v46.04Z"/>
    <path class="cls-2" d="M271.57,357.95c-2.95,0-5.2.71-6.75,2.13-1.63,1.42-2.44,3.24-2.44,5.47s.78,4.05,2.33,5.47c1.55,1.5,4.75,3.43,9.6,5.81,4.85,2.42,8.15,4.72,9.89,6.91,1.75,2.19,2.62,4.8,2.62,7.83,0,3.34-1.34,6.27-4.01,8.81-2.72,2.57-6.23,3.86-10.53,3.86-3.88,0-7.18-.88-9.89-2.65-2.83-1.8-4.85-3.76-6.05-5.87l2.33-3.45c.74,3.15,2.39,5.75,4.95,7.83,2.48,2,5.45,2.99,8.9,2.99s6.01-.94,8.03-2.82c2.02-1.88,3.03-4.39,3.03-7.54,0-2.72-.85-4.99-2.56-6.79-1.63-1.73-4.91-3.82-9.83-6.27-4.89-2.46-8.11-4.57-9.66-6.33-1.59-1.8-2.39-3.86-2.39-6.16,0-2.95,1.12-5.43,3.38-7.42,2.25-1.96,5.2-2.94,8.84-2.94,2.79.08,5.31.69,7.56,1.84,2.37,1.27,4.31,3.03,5.82,5.29l-2.33,3.45c-.85-3.11-2.27-5.47-4.25-7.08-1.86-1.5-4.05-2.28-6.58-2.36Z"/>
    <path class="cls-2" d="M296.19,358.74v19.11h12.57v1.15h-12.57v23.48h15.36v1.15h-19.55v-46.04h19.55v1.15h-15.36Z"/>
    <path class="cls-2" d="M346.44,376.57l14.12,17.96c1.74-3.68,2.62-7.87,2.66-12.55h2.87c-.49,4.76-2.05,9.3-4.69,13.64l7.4,9.38h-4.17l-5.11-6.5c-3.51,4.76-7.92,7.16-13.23,7.19-4.93-.08-8.72-1.25-11.36-3.51-2.67-2.3-4.01-5.27-4.01-8.92.07-3.57,1.02-6.66,2.87-9.27,1.6-2.26,4.55-4.58,8.86-6.96l-1.72-2.19c-2.36-3.07-3.54-5.91-3.54-8.52.07-2.38.94-4.35,2.61-5.93,1.74-1.57,3.89-2.36,6.46-2.36,2.36,0,4.36.71,5.99,2.13,1.63,1.46,2.45,3.4,2.45,5.81s-.89,4.43-2.66,6.27c-1.49,1.61-3.42,3.05-5.78,4.32ZM358.79,397.58l-15.32-19.51c-2.61,1.42-4.6,3.17-5.99,5.24-1.74,2.61-2.61,5.7-2.61,9.27s1.15,6.58,3.44,8.69c2.29,2.19,5.09,3.28,8.39,3.28,4.76.08,8.7-2.11,11.83-6.56.07-.15.16-.29.26-.4ZM345.61,375.53c4.27-2.3,6.46-5.41,6.56-9.32.03-2.15-.45-3.88-1.46-5.18-1.04-1.23-2.47-1.84-4.27-1.84-1.95,0-3.44.61-4.48,1.84-1.11,1.23-1.63,2.72-1.56,4.49-.03,2.15,1.08,4.68,3.34,7.6l1.88,2.42Z"/>
    <path class="cls-2" d="M391.07,380.97v22.56h-3.57v-46.04h13.28c3.4,0,6.26,1.06,8.57,3.17,2.28,2.11,3.45,4.97,3.52,8.58-.07,3.57-1.24,6.41-3.52,8.52-2.35,2.15-5.2,3.22-8.57,3.22h-9.71ZM391.07,358.64v21.18h8.92c2.58,0,4.72-.88,6.44-2.65,1.68-1.73,2.58-4.37,2.68-7.94-.1-3.53-.99-6.2-2.68-8-1.72-1.73-3.86-2.59-6.44-2.59h-8.92Z"/>
    <path class="cls-2" d="M483.16,380.97v22.56h-3.57v-46.04h13.28c3.4,0,6.26,1.06,8.57,3.17,2.28,2.11,3.45,4.97,3.52,8.58-.07,3.57-1.24,6.41-3.52,8.52-2.35,2.15-5.2,3.22-8.57,3.22h-9.71ZM483.16,358.64v21.18h8.92c2.58,0,4.72-.88,6.44-2.65,1.68-1.73,2.58-4.37,2.68-7.94-.1-3.53-.99-6.2-2.68-8-1.72-1.73-3.86-2.59-6.44-2.59h-8.92Z"/>
    <path class="cls-2" d="M441.16,358.5v31.08c0,5.03-1,8.9-3.01,11.63-1.98,2.69-4.64,4.03-8,4.03-4.74,0-8.27-1.34-10.58-4.03s-3.47-6.56-3.47-11.63v-31.08h3.05v31.08c0,4.6.93,8.17,2.79,10.71,1.81,2.53,4.54,3.8,8.21,3.8,3.16,0,5.63-1.29,7.41-3.86,1.78-2.57,2.67-6.12,2.67-10.65v-31.08h.93Z"/>
    <path class="cls-2" d="M461.58,357.49c2.99,0,5.52,1.09,7.6,3.28,2.02,2.23,3.06,5.12,3.12,8.69-.06,3.61-1.1,6.48-3.12,8.63-1.23,1.38-2.71,2.34-4.44,2.88l10.2,22.56h-3.52l-10.02-22.1h-7.74v22.1h-3.16v-46.04h11.08ZM453.67,358.64v21.64h7.21c2.29,0,4.19-.92,5.71-2.76,1.49-1.76,2.29-4.45,2.37-8.06-.09-3.57-.88-6.27-2.37-8.11-1.55-1.8-3.46-2.71-5.71-2.71h-7.21Z"/>
    <path class="cls-2" d="M513.65,397.31c-4.73-4.6-7.1-10.21-7.1-16.81s2.37-12.2,7.1-16.81c4.73-4.6,10.51-6.91,17.34-6.91s12.61,2.3,17.34,6.91c4.73,4.6,7.1,10.21,7.1,16.81s-2.37,12.2-7.1,16.81c-4.73,4.6-10.51,6.91-17.34,6.91s-12.61-2.3-17.34-6.91ZM511.21,380.51c0,6.6,1.86,12.01,5.59,16.23,3.72,4.22,8.46,6.33,14.2,6.33s10.47-2.11,14.2-6.33c3.72-4.22,5.59-9.63,5.59-16.23s-1.86-12.01-5.59-16.23c-3.72-4.22-8.46-6.33-14.2-6.33s-10.47,2.11-14.2,6.33c-3.72,4.22-5.59,9.63-5.59,16.23Z"/>
    <path class="cls-2" d="M572.19,357.95c-2.95,0-5.2.71-6.75,2.13-1.63,1.42-2.44,3.24-2.44,5.47s.78,4.05,2.33,5.47c1.55,1.5,4.75,3.43,9.6,5.81,4.85,2.42,8.15,4.72,9.89,6.91,1.75,2.19,2.62,4.8,2.62,7.83,0,3.34-1.34,6.27-4.02,8.81-2.71,2.57-6.23,3.86-10.53,3.86-3.88,0-7.18-.88-9.89-2.65-2.83-1.8-4.85-3.76-6.05-5.87l2.33-3.45c.74,3.15,2.39,5.75,4.95,7.83,2.48,2,5.45,2.99,8.9,2.99s6.01-.94,8.03-2.82c2.02-1.88,3.03-4.39,3.03-7.54,0-2.72-.85-4.99-2.56-6.79-1.63-1.73-4.91-3.82-9.83-6.27-4.89-2.46-8.11-4.57-9.66-6.33-1.59-1.8-2.39-3.86-2.39-6.16,0-2.95,1.12-5.43,3.38-7.42,2.25-1.96,5.2-2.94,8.84-2.94,2.79.08,5.31.69,7.56,1.84,2.37,1.27,4.31,3.03,5.82,5.29l-2.33,3.45c-.85-3.11-2.27-5.47-4.25-7.08-1.86-1.5-4.05-2.28-6.58-2.36Z"/>
    <path class="cls-2" d="M597.22,358.64v19.11h12.57v1.15h-12.57v23.48h15.36v1.15h-19.55v-46.04h19.55v1.15h-15.36Z"/>
  </g>
  <text class="cls-7" transform="translate(211.14 596.46)"><tspan class="cls-4" x="0" y="0">BOLD </tspan><tspan class="cls-5" x="64.29" y="0">W</tspan><tspan class="cls-1" x="84.32" y="0">OMEN, BOLD LE</tspan><tspan class="cls-6" x="248.19" y="0">A</tspan><tspan class="cls-4" x="264.25" y="0">DERSHIP</tspan></text>
</svg>